<svg width="160" height="160" viewBox="0 0 160 160" fill="none" xmlns="http://www.w3.org/2000/svg">
  <path d="M134.48 44.9992H122.073L91.6333 75.4259C92.6817 78.0978 92.7781 81.0493 91.9064 83.784C91.0346 86.5186 89.2477 88.8697 86.8463 90.4418C84.4449 92.014 81.5754 92.7113 78.7203 92.4166C75.8652 92.1219 73.1987 90.853 71.1691 88.8234C69.1395 86.7939 67.8707 84.1273 67.576 81.2722C67.2812 78.4171 67.9785 75.5476 69.5507 73.1462C71.1229 70.7448 73.4739 68.958 76.2086 68.0862C78.9433 67.2144 81.8947 67.3108 84.5667 68.3592L115 37.9259V25.5192C115.001 23.8591 115.66 22.267 116.833 21.0926L128.367 9.55923C128.58 9.34379 128.848 9.19076 129.141 9.11673C129.435 9.04269 129.744 9.05048 130.033 9.13923C130.627 9.31256 131.067 9.8059 131.187 10.4126L134.253 25.7526L149.587 28.8192C150.187 28.9392 150.68 29.3792 150.853 29.9726C150.941 30.2608 150.949 30.5673 150.876 30.8596C150.803 31.1519 150.652 31.419 150.44 31.6326L138.9 43.1659C138.32 43.747 137.631 44.208 136.872 44.5226C136.114 44.8372 135.301 44.9991 134.48 44.9992Z" fill="#AB0C0C"/>
  <path d="M17.5 80C17.5 96.5761 24.0848 112.473 35.8058 124.194C47.5268 135.915 63.424 142.5 80 142.5C88.2076 142.5 96.3349 140.883 103.918 137.743C111.501 134.602 118.391 129.998 124.194 124.194C129.998 118.391 134.602 111.501 137.742 103.918C140.883 96.3349 142.5 88.2077 142.5 80C142.5 74.0134 141.66 68.2267 140.093 62.7534C139.782 61.4966 139.97 60.1681 140.618 59.0473C141.267 57.9266 142.324 57.101 143.569 56.7443C144.814 56.3875 146.148 56.5275 147.292 57.1348C148.435 57.742 149.298 58.7691 149.7 60C151.527 66.36 152.5 73.0667 152.5 80C152.5 120.04 120.04 152.5 80 152.5C39.96 152.5 7.5 120.04 7.5 80C7.5 39.96 39.96 7.50004 80 7.50004C86.7667 7.49337 93.4933 8.43337 100 10.2934C100.634 10.4713 101.227 10.7729 101.745 11.1808C102.262 11.5887 102.694 12.0949 103.015 12.6702C103.336 13.2455 103.541 13.8787 103.616 14.5332C103.692 15.1877 103.638 15.8508 103.456 16.4842C103.275 17.1177 102.97 17.709 102.559 18.2242C102.149 18.7395 101.64 19.1684 101.063 19.4865C100.486 19.8045 99.8517 20.0054 99.1968 20.0775C98.5418 20.1496 97.8791 20.0916 97.2467 19.9067C91.638 18.3049 85.8329 17.4948 80 17.5C63.424 17.5 47.5268 24.0848 35.8058 35.8059C24.0848 47.5269 17.5 63.424 17.5 80Z" fill="#1E3A8A"/>
  <path d="M47.4999 79.9986C47.5186 84.4141 48.4369 88.7795 50.1989 92.8282C51.961 96.8769 54.5297 100.524 57.7483 103.547C60.9669 106.57 64.7678 108.905 68.919 110.41C73.0701 111.915 77.4845 112.558 81.8925 112.299C86.3004 112.041 90.6096 110.887 94.5567 108.908C98.5039 106.929 102.006 104.167 104.85 100.789C107.694 97.4109 109.819 93.4889 111.097 89.2622C112.374 85.0355 112.777 80.5928 112.28 76.2053C112.14 75.3167 112.243 74.4068 112.578 73.572C112.913 72.7371 113.468 72.0085 114.183 71.4632C114.898 70.9179 115.748 70.5763 116.642 70.4746C117.536 70.3728 118.44 70.5147 119.26 70.8853C120.933 71.6319 122.06 73.2253 122.207 75.0519C123.242 83.8202 121.519 92.6932 117.279 100.438C113.039 108.182 106.491 114.413 98.5464 118.264C90.6015 122.116 81.6541 123.396 72.9479 121.928C64.2416 120.46 56.209 116.316 49.9666 110.072C43.7259 103.835 39.5808 95.8102 38.1061 87.1111C36.6315 78.412 37.9003 69.4697 41.7368 61.5242C45.5732 53.5788 51.7871 47.0241 59.5165 42.7692C67.246 38.5143 76.1079 36.7701 84.8733 37.7786C85.5359 37.8401 86.1796 38.0332 86.7666 38.3467C87.3536 38.6602 87.8722 39.0877 88.2918 39.6042C88.7115 40.1207 89.0238 40.7157 89.2105 41.3545C89.3972 41.9932 89.4545 42.6628 89.3791 43.324C89.3037 43.9852 89.097 44.6247 88.7712 45.205C88.4454 45.7853 88.0071 46.2947 87.4819 46.7033C86.9567 47.112 86.3552 47.4117 85.7126 47.5849C85.0701 47.7581 84.3994 47.8013 83.7399 47.7119C79.1868 47.1855 74.5738 47.628 70.2037 49.0102C65.8336 50.3924 61.8052 52.6832 58.3829 55.7321C54.9606 58.7811 52.2218 62.5193 50.3462 66.7015C48.4706 70.8836 47.5006 75.4151 47.4999 79.9986Z" fill="#087119"/>
</svg>
